<?xml version="1.0" encoding="iso-8859-1"?>
<!-- Generator: Adobe Illustrator 19.0.0, SVG Export Plug-In . SVG Version: 6.00 Build 0)  -->
<svg version="1.1" id="Layer_1" xmlns="http://www.w3.org/2000/svg" xmlns:xlink="http://www.w3.org/1999/xlink" x="0px" y="0px"
	 viewBox="0 0 512 512" style="enable-background:new 0 0 512 512;" xml:space="preserve">
<path style="fill:#DCF3F9;" d="M482.357,277.556H29.642c-11.906,0-21.558-9.651-21.558-21.558V148.21
	c0-11.906,9.651-21.558,21.558-21.558h452.715c11.906,0,21.558,9.651,21.558,21.558v107.788
	C503.915,267.905,494.263,277.556,482.357,277.556z"/>
<path style="fill:#C3E4ED;" d="M482.357,126.652H29.642c-11.906,0-21.558,9.651-21.558,21.558v107.789
	c0,11.906,9.651,21.558,21.558,21.558h452.715c11.906,0,21.558-9.651,21.558-21.558V148.21
	C503.915,136.303,494.263,126.652,482.357,126.652z M487.746,255.999c0,2.972-2.418,5.389-5.389,5.389H29.642
	c-2.972,0-5.389-2.418-5.389-5.389V148.21c0-2.972,2.418-5.389,5.389-5.389h452.715c2.972,0,5.389,2.418,5.389,5.389V255.999z"/>
<path style="fill:#FC8059;" d="M359.015,219.093l134.622,52.678c12.504,4.893,13.94,22.013,2.426,28.921l-48.002,28.801
	l-28.801,48.002c-6.908,11.514-24.028,10.077-28.921-2.426l-52.678-134.621c-2.386-6.098-0.936-13.03,3.694-17.659l0,0
	C345.986,218.157,352.918,216.707,359.015,219.093z"/>
<path style="fill:#AD3C1E;" d="M496.063,300.692l-48.002,28.801L341.355,222.787c4.631-4.63,11.561-6.08,17.659-3.694
	l134.621,52.678C506.141,276.664,507.577,293.784,496.063,300.692z"/>
<path style="fill:#4C4C4C;" d="M101.322,219.261c0,13.917-13.298,25.24-29.642,25.24H50.122c-4.466,0-8.084-3.618-8.084-8.084
	c0-4.466,3.618-8.084,8.084-8.084H71.68c7.178,0,13.474-4.239,13.474-9.072s-6.296-9.073-13.474-9.073H60.901
	c-16.344,0-29.642-11.323-29.642-25.241c0-13.918,13.298-25.24,29.642-25.24h21.558c4.466,0,8.084,3.618,8.084,8.084
	c0,4.466-3.618,8.084-8.084,8.084H60.901c-7.178,0-13.474,4.239-13.474,9.072c0,4.832,6.296,9.073,13.474,9.073H71.68
	C88.024,194.02,101.322,205.344,101.322,219.261z M252.129,235.163c0.693,4.411-2.321,8.549-6.731,9.241
	c-0.426,0.067-0.847,0.099-1.265,0.099c-3.912,0-7.349-2.846-7.975-6.831l-2.97-18.905h-31.983l-2.97,18.905
	c-0.694,4.412-4.834,7.417-9.241,6.731c-4.411-0.693-7.425-4.83-6.731-9.241l8.774-55.858c1.783-11.355,12.785-19.597,26.161-19.597
	s24.377,8.242,26.161,19.598L252.129,235.163z M230.647,202.598l-3.264-20.784c-0.448-2.855-4.47-5.938-10.187-5.938
	c-5.717,0-9.739,3.082-10.187,5.937l-3.264,20.785H230.647z M140.665,175.876h21.558c4.466,0,8.084-3.618,8.084-8.084
	c0-4.466-3.618-8.084-8.084-8.084h-21.558c-16.344,0-29.642,11.322-29.642,25.24v34.314c0,13.917,13.298,25.24,29.642,25.24h21.558
	c4.466,0,8.084-3.618,8.084-8.084c0-4.466-3.618-8.084-8.084-8.084h-21.558c-7.178,0-13.474-4.239-13.474-9.072v-9.073h35.032
	c4.466,0,8.084-3.618,8.084-8.084s-3.618-8.084-8.084-8.084h-35.032v-9.073C127.192,180.114,133.488,175.876,140.665,175.876z
	 M508.029,270.827c-0.277,0.477-0.595,0.917-0.947,1.316c2.725,3.587,4.436,7.941,4.831,12.658
	c0.778,9.285-3.702,18.03-11.691,22.823l-46.269,27.761l-27.761,46.269c-4.434,7.39-12.25,11.777-20.746,11.778
	c-0.689,0-1.381-0.029-2.078-0.087c-9.284-0.779-17.162-6.653-20.558-15.33l-36.145-92.373H29.642
	C13.298,285.641,0,272.343,0,255.999V148.21c0-16.344,13.298-29.642,29.642-29.642h452.715c16.344,0,29.642,13.298,29.642,29.642
	v107.789C511.999,261.209,510.627,266.336,508.029,270.827z M495.8,286.152c-0.263-3.142-2.174-5.704-5.109-6.853l-132.813-51.971
	c-1.378-0.087-2.662-0.52-3.766-1.213c-0.366-0.049-0.734-0.072-1.101-0.072c-2.186,0-4.334,0.855-5.938,2.46l-0.001,0.001
	c-2.358,2.358-3.098,5.89-1.882,8.996l52.678,134.621c1.149,2.936,3.71,4.846,6.852,5.109c3.146,0.265,5.986-1.192,7.609-3.896
	l28.8-48.002c0.683-1.138,1.636-2.09,2.773-2.773l48.002-28.801C494.608,292.138,496.064,289.293,495.8,286.152z M495.83,148.21
	c0-7.43-6.044-13.474-13.474-13.474H29.642c-7.43,0-13.474,6.044-13.474,13.474v107.789c0,7.43,6.044,13.474,13.474,13.474h310.697
	l-9.808-25.064c-3.088,0.479-6.31-0.874-8.08-3.691l-19.181-30.529h-6.31c-4.466,0-8.084-3.618-8.084-8.084s3.618-8.084,8.084-8.084
	h10.642c0.08-0.002,0.16-0.002,0.24,0c7.135-0.04,13.37-4.262,13.37-9.073c0-4.832-6.296-9.072-13.474-9.072h-24.253v60.541
	c0,4.466-3.618,8.084-8.084,8.084s-8.084-3.618-8.084-8.084v-68.625c0-4.466,3.618-8.084,8.084-8.084h32.337
	c16.344,0,29.642,11.322,29.642,25.24c0,9.946-6.789,18.565-16.628,22.676l10.135,16.133c1.177-2.437,2.768-4.702,4.75-6.684
	c0.001-0.001,0.001-0.001,0.001-0.001c4.031-4.031,9.233-6.445,14.674-7.047v-25.076c0-13.918,13.298-25.24,29.642-25.24h21.558
	c4.466,0,8.084,3.618,8.084,8.084c0,4.466-3.618,8.084-8.084,8.084h-21.558c-7.178,0-13.474,4.239-13.474,9.072v28.386
	l54.973,21.512v-67.054c0-4.466,3.618-8.084,8.084-8.084s8.084,3.618,8.084,8.084v26.228h26.947v-26.228
	c0-4.466,3.618-8.084,8.084-8.084s8.084,3.618,8.084,8.084v68.625c0,4.466-3.618,8.084-8.084,8.084s-8.084-3.618-8.084-8.084
	v-26.228h-26.947v26.228c0,1.57-0.447,3.035-1.222,4.277l57.402,22.461c0.071-0.142,0.148-0.285,0.229-0.425
	c1.176-2.033,1.798-4.36,1.798-6.731L495.83,148.21L495.83,148.21z"/>
<g>
</g>
<g>
</g>
<g>
</g>
<g>
</g>
<g>
</g>
<g>
</g>
<g>
</g>
<g>
</g>
<g>
</g>
<g>
</g>
<g>
</g>
<g>
</g>
<g>
</g>
<g>
</g>
<g>
</g>
</svg>
